<svg width="34" height="35" viewBox="0 0 34 35" fill="none" xmlns="http://www.w3.org/2000/svg">
<path fill-rule="evenodd" clip-rule="evenodd" d="M17.9628 0.85611V0.855469H18.3469V0.859561C22.5665 0.935576 26.4073 2.26541 29.2258 4.65154C32.1363 7.11552 33.935 10.6892 33.935 15.1011V18.3632C33.935 18.4382 33.9347 18.5129 33.9341 18.5873C33.9014 24.2541 32.1325 28.2194 29.2312 30.7662C26.3989 33.2526 22.547 34.3343 18.3469 34.396V34.3984H18.0995C18.0539 34.3987 18.0083 34.3988 17.9626 34.3988H16.9392H16.8756V34.3991C16.8312 34.3991 16.7868 34.399 16.7425 34.3988H16.4914V34.3963C12.2912 34.3346 8.43901 33.2527 5.6065 30.7581C2.67797 28.179 0.903687 24.1469 0.903687 18.3632V15.1011C0.903687 15.0321 0.904126 14.9634 0.905001 14.8949C0.960168 10.5778 2.74784 7.07702 5.61284 4.65154C8.51659 2.19325 12.5054 0.85611 16.8756 0.85611V0.856204L16.9396 0.85611H17.9628ZM6.17463 5.30662C8.81058 3.08137 12.4383 1.80627 16.4914 1.71873V1.77754H16.9392H17.9626C22.1634 1.77754 25.9461 3.06289 28.6711 5.36986C31.3894 7.67114 33.0768 11.0055 33.0768 15.1647V18.4268C33.0768 18.4787 33.0766 18.5303 33.0763 18.5819C33.0323 24.0634 31.33 27.7667 28.6582 30.1055C25.9411 32.4839 22.1559 33.5089 17.9022 33.4774L17.8991 33.4773H16.8756C12.6537 33.4773 8.88317 32.4371 6.17291 30.0579C3.47272 27.6876 1.76148 23.9322 1.76148 18.3632V15.1011C1.76148 14.7111 1.77631 14.3285 1.80544 13.9532C2.08697 10.3259 3.70427 7.39207 6.17463 5.30662ZM21.3528 12.7978V10.3672C21.2249 10.3352 21.097 10.3192 20.969 10.3033C20.8411 10.2873 20.7132 10.2713 20.5853 10.2393H19.1781C18.4105 10.3033 17.7069 10.4312 17.1313 10.8789C16.4277 11.3906 16.0439 12.0942 15.916 12.9257C15.852 13.2456 15.852 13.6293 15.852 13.9491V13.9492V15.5482V15.7401H13.5493V18.4266H15.852V25.2706H18.6664V18.4905H20.969C21.033 17.5951 21.1609 16.6996 21.2889 15.8042L21.2889 15.8041H20.7772H18.6024V13.8852C18.6664 13.0537 19.1141 12.7978 19.7537 12.7978H21.1609H21.3528Z" fill="#333333"/>
</svg>
