<svg width="34" height="34" viewBox="0 0 34 34" fill="none" xmlns="http://www.w3.org/2000/svg">
<path fill-rule="evenodd" clip-rule="evenodd" d="M17.4778 0.493225V0.492554H17.8545V0.4966C21.9937 0.571056 25.7618 1.8755 28.5272 4.21665C31.3828 6.63418 33.1475 10.1405 33.1475 14.4689V17.6674C33.1475 17.7656 33.147 17.8634 33.1459 17.9606C33.099 23.4795 31.3667 27.3466 28.5324 29.8347C25.7532 32.2744 21.9741 33.3353 17.8545 33.3958V33.3982H17.6021L17.4779 33.3985H16.4745H16.4123V33.3991C16.3568 33.3991 16.3014 33.3989 16.246 33.3985H16.0354V33.3963C11.9159 33.3358 8.13659 32.2746 5.35732 29.827C2.48365 27.2962 0.743347 23.3401 0.743347 17.6674V14.4689C0.743347 14.4012 0.743778 14.3338 0.744637 14.2666C0.798761 10.0312 2.55267 6.59641 5.36366 4.21665C8.21255 1.80481 12.1256 0.493225 16.4123 0.493225V0.493317L16.475 0.493225H17.4778ZM5.92529 4.87173C8.5081 2.69134 12.0631 1.44161 16.0354 1.35576V1.4132H16.4745H17.4779C21.5952 1.4132 25.3022 2.67299 27.9723 4.93352C30.6358 7.18835 32.2891 10.4554 32.2891 14.531V17.7296C32.2891 17.8041 32.2888 17.8783 32.2882 17.9522C32.231 23.2864 30.5657 26.8933 27.9597 29.1745C25.2976 31.5048 21.5885 32.5095 17.419 32.4786L17.4158 32.4786H16.4123C12.2739 32.4786 8.57913 31.4589 5.92374 29.1279C3.27841 26.8057 1.60114 23.1261 1.60114 17.6674V14.4689C1.60114 14.2141 1.6076 13.9626 1.62036 13.7142C1.81178 9.98888 3.42133 6.98555 5.92529 4.87173ZM22.4953 11.1442C23.1852 11.7713 23.5615 12.5867 23.6242 13.4647C23.7496 14.5309 23.8751 19.6109 23.5615 20.8025C23.1225 22.3077 22.119 23.2484 20.5511 23.4993C19.3595 23.6875 14.0913 23.6875 13.0252 23.4366C11.4572 23.0603 10.5165 22.0568 10.2656 20.4889C10.0775 19.36 10.0148 13.9664 10.3283 12.8375C10.7674 11.3323 11.7708 10.4543 13.276 10.2034C14.6558 9.95257 18.4188 10.0153 19.9867 10.1407C20.9274 10.2034 21.8054 10.4543 22.4953 11.1442ZM20.1748 22.3077C21.4291 22.1823 22.1817 21.4297 22.3699 20.2381C22.558 19.0464 22.558 14.719 22.4326 13.5274C22.3072 12.2731 21.5546 11.5205 20.363 11.3323C19.1714 11.2069 14.8439 11.2069 13.6523 11.3323C12.4607 11.4578 11.7081 12.2104 11.52 13.402C11.3318 14.6563 11.3945 19.36 11.52 20.3008C11.6454 21.3042 12.2098 21.9314 13.1506 22.1823C14.154 22.4958 19.1086 22.4331 20.1748 22.3077ZM13.4014 16.8514C13.4014 14.9072 14.9694 13.3393 16.9136 13.3393C18.8578 13.3393 20.4257 14.9072 20.4257 16.8514C20.4257 18.7956 18.8578 20.3635 16.9136 20.3635C14.9694 20.3635 13.4014 18.7956 13.4014 16.8514ZM14.6558 16.8514C14.6558 18.1057 15.6592 19.1092 16.9136 19.1092C18.1679 19.1092 19.1714 18.1057 19.1714 16.8514C19.1714 15.597 18.1679 14.5936 16.9136 14.5936C15.6592 14.5936 14.6558 15.597 14.6558 16.8514ZM20.5511 14.0291C20.9901 14.0291 21.3664 13.6528 21.3664 13.2138C21.3664 12.7748 21.0528 12.3985 20.5511 12.3985C20.1121 12.3985 19.7358 12.7748 19.7358 13.2138C19.7358 13.6528 20.1121 14.0291 20.5511 14.0291Z" fill="#333333"/>
</svg>
