<svg width="34" height="34" viewBox="0 0 34 34" fill="none" xmlns="http://www.w3.org/2000/svg">
<path fill-rule="evenodd" clip-rule="evenodd" d="M1.85558 16.16C1.82474 10.7016 3.48679 7.0229 6.12376 4.70147C7.33606 3.63423 8.76795 2.84187 10.3615 2.29645C12.2488 1.65112 14.3613 1.35166 16.604 1.35166V1.35133H16.6668H17.6699H17.6703L17.6886 1.35133C21.826 1.36449 25.5057 2.3863 28.1514 4.70227C30.8042 7.02436 32.4814 10.7037 32.4814 16.1624V19.3609C32.4814 23.4366 30.8281 26.7036 28.1646 28.9584C25.4945 31.219 21.7875 32.4788 17.6702 32.4788H16.6668C12.5495 32.4788 8.84251 31.219 6.17236 28.9584C3.50893 26.7036 1.85559 23.4366 1.85559 19.3609L1.8556 16.1624L1.85558 16.16ZM10.089 1.48302C11.9752 0.838434 14.0541 0.528034 16.2278 0.496155V0.49353H16.5245L16.604 0.493408H17.6075L17.6703 0.49353H17.6877H18.0465V0.496278C22.1663 0.556702 25.9455 1.61761 28.7247 4.05734C31.2114 6.24026 32.8498 9.48474 33.246 13.9748C33.3076 14.6736 33.3392 15.4026 33.3392 16.1624L33.3392 16.1625V19.361C33.3392 19.6315 33.3323 19.8988 33.3187 20.1628C33.1144 24.1234 31.3961 27.3468 28.7189 29.6132C25.9536 31.9543 22.1856 33.2588 18.0465 33.3333V33.399H17.6699V33.3367H16.6668H16.604V33.337C16.5644 33.337 16.5248 33.3369 16.4852 33.3367H16.2278V33.3336C12.0887 33.2591 8.32063 31.9547 5.55529 29.6136C2.69969 27.1961 0.934982 23.6897 0.934982 19.3614V16.1628C0.934982 10.5207 2.67576 6.58034 5.54947 4.05768C6.8626 2.90496 8.39896 2.06004 10.089 1.48302ZM17.8587 18.4203C17.8587 17.3541 18.0469 16.3507 19.3639 16.3507C20.6183 16.3507 20.6183 17.5423 20.5555 18.3576V22.246H23.0015V17.8559C23.0015 15.7235 22.5625 14.0929 20.0538 14.0929C18.8622 14.0929 18.0469 14.7827 17.7333 15.4099V14.3437H15.3501V22.3714H17.8587V18.4203ZM13.8448 14.344H11.3362V22.309H13.8448V14.344ZM14.0328 11.835C14.0328 11.0197 13.4056 10.3925 12.5903 10.3925C11.775 10.3925 11.1478 11.0197 11.1478 11.835C11.1478 12.6503 11.775 13.2775 12.5903 13.2775C13.4056 13.2775 14.0328 12.6503 14.0328 11.835Z" fill="#333333"/>
</svg>
