<svg width="33" height="34" viewBox="0 0 33 34" fill="none" xmlns="http://www.w3.org/2000/svg">
<path fill-rule="evenodd" clip-rule="evenodd" d="M17.0744 0.493225V0.492554H17.451V0.496613C21.59 0.571203 25.3578 1.87563 28.123 4.21665C30.9787 6.63418 32.7434 10.1405 32.7434 14.4689V17.6674L32.7432 17.7511C32.7388 23.3818 30.9988 27.3153 28.1288 29.8347C25.3496 32.2744 21.5706 33.3353 17.451 33.3958V33.3982H17.1985L17.0743 33.3985H16.0708H16.0082V33.3991C15.9527 33.3991 15.8973 33.3989 15.8419 33.3985H15.6318V33.3963C11.512 33.3359 7.73258 32.2747 4.95321 29.827C2.07954 27.2962 0.339233 23.3401 0.339233 17.6674V14.4689C0.339233 14.4012 0.339664 14.3338 0.340523 14.2666C0.394648 10.0312 2.14856 6.59641 4.95955 4.21665C7.80844 1.80481 11.7215 0.493225 16.0082 0.493225V0.493317L16.0709 0.493225H17.0744L17.0744 0.493225ZM5.52118 4.87173C8.10409 2.69125 11.6592 1.44152 15.6318 1.35575V1.4132H16.0708H17.0743C21.1916 1.4132 24.8985 2.67299 27.5687 4.93352C30.2321 7.18835 31.8854 10.4554 31.8854 14.531V17.7296L31.8854 17.7488C31.8689 23.1949 30.1946 26.8645 27.5556 29.1745C24.8935 31.5048 21.1844 32.5095 17.0148 32.4786L17.0117 32.4786H16.0082C11.8698 32.4786 8.17502 31.4589 5.51962 29.1279C2.87429 26.8057 1.19703 23.1261 1.19703 17.6674V14.4689C1.19703 14.2141 1.20349 13.9626 1.21625 13.7142C1.40766 9.98888 3.01722 6.98555 5.52118 4.87173ZM21.5269 14.28L21.5896 14.2173C21.6011 14.2077 21.6125 14.1982 21.6238 14.1888C21.9848 13.8883 22.2814 13.6414 22.3422 13.2765C22.4049 13.2138 22.452 13.1511 22.499 13.0884C22.5461 13.0257 22.5931 12.963 22.6558 12.9003C22.2168 13.0884 21.7151 13.2138 21.2133 13.2765C21.7778 12.9003 22.1541 12.4612 22.3422 11.8341H22.2795C21.8405 12.0849 21.276 12.2731 20.7743 12.3985C20.7116 12.3985 20.7116 12.3985 20.6489 12.3358C20.0217 11.7086 19.2691 11.4578 18.3911 11.5832C17.6385 11.7086 17.074 12.1477 16.635 12.7748C16.3215 13.2765 16.196 13.841 16.2587 14.4682C16.3215 14.5936 16.3215 14.6563 16.3215 14.7817C14.1891 14.6563 12.3703 13.7156 10.9906 12.0849C10.677 12.6494 10.6143 13.2765 10.7397 13.9664C10.8651 14.5936 11.2414 15.158 11.8059 15.5343C11.4296 15.5343 11.0533 15.4089 10.677 15.2208C10.677 15.7225 10.8024 16.1615 11.0533 16.6005C11.4296 17.2277 11.994 17.604 12.7466 17.7921H12.6839C12.3076 17.9176 11.9313 17.9176 11.555 17.8548C11.8059 18.6702 12.6212 19.6109 14.0009 19.6736C13.6246 19.9872 13.1856 20.2381 12.7466 20.4262C11.9313 20.8025 11.0533 20.9279 10.1752 20.8025L10.238 20.8652C11.4923 21.6805 12.8721 22.0568 14.3772 21.9941C14.5393 21.9739 14.6947 21.9602 14.8479 21.9466C15.169 21.9183 15.48 21.8909 15.8197 21.806C17.1995 21.4924 18.3911 20.8025 19.3946 19.7991C19.959 19.1719 20.398 18.482 20.7743 17.7294C21.1506 16.9768 21.3388 16.2242 21.4642 15.4089C21.5269 15.0326 21.5269 14.6563 21.5269 14.28V14.28Z" fill="#333333"/>
</svg>
