<svg width="33" height="34" viewBox="0 0 33 34" fill="none" xmlns="http://www.w3.org/2000/svg">
<path fill-rule="evenodd" clip-rule="evenodd" d="M16.8822 0.493225V0.492554H17.2588V0.496605C21.3979 0.571109 25.1659 1.87555 27.9313 4.21665C30.7869 6.63418 32.5516 10.1405 32.5516 14.4689V17.6674C32.5516 17.7276 32.5514 17.7875 32.551 17.8473C32.5269 23.4266 30.7904 27.3297 27.9368 29.8347C25.1576 32.2744 21.3785 33.3353 17.2588 33.3958V33.3982H17.0065L16.8823 33.3985H15.8788H15.8164V33.3991C15.7609 33.3991 15.7055 33.3989 15.6501 33.3985H15.4398V33.3963C11.3201 33.3358 7.54076 32.2747 4.76143 29.827C1.88776 27.2962 0.147461 23.3401 0.147461 17.6674V14.4689C0.147461 14.4012 0.147892 14.3338 0.148751 14.2666C0.202875 10.0312 1.95678 6.59641 4.76777 4.21665C7.61666 1.80481 11.5297 0.493225 15.8164 0.493225V0.493317L15.8792 0.493225H16.8822ZM5.32941 4.87173C7.91227 2.69129 11.4674 1.44156 15.4398 1.35575V1.4132H15.8788H16.8823C20.9996 1.4132 24.7065 2.67299 27.3767 4.93352C30.0401 7.18835 31.6935 10.4554 31.6935 14.531V17.7296L31.6932 17.84C31.6584 23.2359 29.9881 26.8774 27.3638 29.1745C24.7018 31.5048 20.9926 32.5095 16.8231 32.4786L16.8199 32.4786H15.8164C11.678 32.4786 7.98324 31.4589 5.32785 29.1279C2.68252 26.8057 1.00526 23.1261 1.00526 17.6674V14.4689C1.00526 14.2141 1.01172 13.9626 1.02448 13.7142C1.21589 9.98888 2.82545 6.98555 5.32941 4.87173ZM23.2792 20.8026C23.9064 19.4856 23.9064 14.3428 23.3419 12.9631C23.1538 12.4613 22.7775 12.085 22.2758 11.8342C21.335 11.5206 13.4328 11.5206 10.8614 11.7715C10.3597 11.7715 9.92064 12.0223 9.60706 12.3986C8.66631 13.5275 8.79175 19.172 9.29348 20.5518C9.48163 21.1162 9.85793 21.4925 10.4224 21.6807C11.6767 22.1197 21.5232 22.1197 22.4639 21.6179C22.8402 21.4298 23.0911 21.1789 23.2792 20.8026ZM17.9451 16.0378C18.3407 16.2456 18.7383 16.4545 19.1399 16.6633C18.356 17.071 17.5877 17.4787 16.8194 17.8863C16.0512 18.294 15.2829 18.7016 14.4989 19.1093V14.2801C15.6652 14.8399 16.7967 15.4344 17.9451 16.0378Z" fill="#333333"/>
</svg>
